<svg width="10" height="10" viewBox="0 0 10 10" fill="none" xmlns="http://www.w3.org/2000/svg">
<path d="M4.64307 0.625C2.39962 0.625 0.580566 2.58398 0.580566 5C0.580566 7.41602 2.39962 9.375 4.64307 9.375C6.88651 9.375 8.70557 7.41602 8.70557 5C8.70557 2.58398 6.88651 0.625 4.64307 0.625ZM6.24358 6.34473L5.98424 6.72559C5.97859 6.73388 5.97149 6.74089 5.96332 6.74622C5.95516 6.75154 5.9461 6.75508 5.93666 6.75662C5.92722 6.75816 5.91759 6.75768 5.90833 6.75521C5.89906 6.75273 5.89034 6.7483 5.88267 6.74219L4.38281 5.56445C4.37347 5.55723 4.36587 5.54769 4.36067 5.53664C4.35546 5.5256 4.35279 5.51336 4.35289 5.50098V2.8125C4.35289 2.76953 4.38553 2.73438 4.42543 2.73438H4.86161C4.90151 2.73438 4.93415 2.76953 4.93415 2.8125V5.22949L6.22726 6.23633C6.2599 6.26074 6.26716 6.30957 6.24358 6.34473Z" fill="white"/>
</svg>
