<svg width="24" height="25" viewBox="0 0 24 25" fill="none" xmlns="http://www.w3.org/2000/svg">
<path d="M12 0.383789C5.37294 0.383789 0 5.76354 0 12.399C0 18.3952 4.38764 23.3652 10.1254 24.27V15.873H7.07711V12.399H10.1254V9.75179C10.1254 6.73807 11.9172 5.0762 14.6571 5.0762C15.97 5.0762 17.3453 5.31052 17.3453 5.31052V8.26536H15.8284C14.3402 8.26536 13.8746 9.19302 13.8746 10.1435V12.3966H17.2001L16.6685 15.8705H13.8746V24.2676C19.6124 23.3676 24 18.3964 24 12.399C24 5.76354 18.6271 0.383789 12 0.383789V0.383789Z" fill="white"/>
</svg>
