<svg width="24" height="25" viewBox="0 0 24 25" fill="none" xmlns="http://www.w3.org/2000/svg">
<g clip-path="url(#clip0_133_7997)">
<path d="M12 24.27C10.375 24.27 8.82031 23.9551 7.33594 23.3253C5.85156 22.6955 4.57422 21.848 3.50391 20.7827C2.43359 19.7175 1.58203 18.4462 0.949219 16.9689C0.316406 15.4915 0 13.9442 0 12.3269C0 10.7096 0.316406 9.16229 0.949219 7.68495C1.58203 6.20761 2.43359 4.93632 3.50391 3.87109C4.57422 2.80585 5.85156 1.95832 7.33594 1.32851C8.82031 0.698695 10.375 0.383789 12 0.383789C13.625 0.383789 15.1797 0.698695 16.6641 1.32851C18.1484 1.95832 19.4258 2.80585 20.4961 3.87109C21.5664 4.93632 22.418 6.20761 23.0508 7.68495C23.6836 9.16229 24 10.7096 24 12.3269C24 13.9442 23.6836 15.4915 23.0508 16.9689C22.418 18.4462 21.5664 19.7175 20.4961 20.7827C19.4258 21.848 18.1484 22.6955 16.6641 23.3253C15.1797 23.9551 13.625 24.27 12 24.27ZM18 7.84824C18 7.44391 17.8555 7.09402 17.5664 6.79855C17.2773 6.50308 16.9219 6.35535 16.5 6.35535H7.5C7.09375 6.35535 6.74219 6.50308 6.44531 6.79855C6.14844 7.09402 6 7.44391 6 7.84824V9.34113H8.67188C9.57812 8.34587 10.6875 7.84824 12 7.84824C13.3125 7.84824 14.4219 8.34587 15.3281 9.34113H18V7.84824ZM9 12.3269C9 13.1511 9.29297 13.8548 9.87891 14.4379C10.4648 15.0211 11.1719 15.3127 12 15.3127C12.8281 15.3127 13.5352 15.0211 14.1211 14.4379C14.707 13.8548 15 13.1511 15 12.3269C15 11.5027 14.707 10.799 14.1211 10.2159C13.5352 9.63271 12.8281 9.34113 12 9.34113C11.1719 9.34113 10.4648 9.63271 9.87891 10.2159C9.29297 10.799 9 11.5027 9 12.3269ZM18 10.834H16.2188C16.4062 11.3472 16.5 11.8448 16.5 12.3269C16.5 13.571 16.0625 14.6284 15.1875 15.4993C14.3125 16.3701 13.25 16.8056 12 16.8056C10.75 16.8056 9.6875 16.3701 8.8125 15.4993C7.9375 14.6284 7.5 13.571 7.5 12.3269C7.5 11.8448 7.59375 11.3472 7.78125 10.834H6V16.8056C6 17.2254 6.14453 17.5792 6.43359 17.8669C6.72266 18.1546 7.07812 18.2985 7.5 18.2985H16.5C16.9219 18.2985 17.2773 18.1546 17.5664 17.8669C17.8555 17.5792 18 17.2254 18 16.8056V10.834Z" fill="white"/>
</g>
<defs>
<clipPath id="clip0_133_7997">
<rect width="24" height="23.8862" fill="white" transform="translate(0 0.383789)"/>
</clipPath>
</defs>
</svg>
