<svg width="10" height="10" viewBox="0 0 10 10" fill="none" xmlns="http://www.w3.org/2000/svg">
<path d="M7.92656 7.1416L6.35379 5.6016C6.27945 5.52883 6.18175 5.49002 6.08133 5.49337C5.98092 5.49671 5.88564 5.54194 5.81561 5.61952L4.88974 6.64494C4.66689 6.5991 4.21885 6.44869 3.75766 5.95327C3.29647 5.45619 3.1568 4.97244 3.1154 4.7341L4.0668 3.7366C4.13892 3.66124 4.18099 3.55861 4.18409 3.45044C4.1872 3.34227 4.1511 3.23704 4.08343 3.15702L2.65382 1.46369C2.58613 1.38342 2.49205 1.33473 2.39156 1.32796C2.29107 1.32119 2.19209 1.35688 2.11563 1.42744L1.27605 2.20285C1.20916 2.27515 1.16923 2.37137 1.16385 2.47327C1.15805 2.57744 1.04739 5.04494 2.82406 6.9591C4.374 8.62785 6.31549 8.74994 6.85019 8.74994C6.92834 8.74994 6.97632 8.74744 6.98909 8.7466C7.08369 8.7409 7.17299 8.69771 7.2398 8.62535L7.95945 7.72077C8.02522 7.6387 8.0586 7.53219 8.05246 7.42398C8.04632 7.31577 8.00113 7.21443 7.92656 7.1416V7.1416Z" fill="white"/>
</svg>
