<svg width="24" height="25" viewBox="0 0 24 25" fill="none" xmlns="http://www.w3.org/2000/svg">
<g clip-path="url(#clip0_133_7998)">
<path d="M12 0.861816C5.63758 0.861816 0.47998 5.99497 0.47998 12.3272C0.47998 18.6594 5.63758 23.7926 12 23.7926C18.3624 23.7926 23.52 18.6594 23.52 12.3272C23.52 5.99497 18.3624 0.861816 12 0.861816ZM16.686 10.2539C16.6908 10.3518 16.692 10.4497 16.692 10.5453C16.692 13.5311 14.4108 16.9719 10.2372 16.9719C9.00393 16.9739 7.79634 16.6214 6.75958 15.9567C6.93598 15.9782 7.11718 15.9866 7.30078 15.9866C8.36398 15.9866 9.34198 15.6271 10.1184 15.0204C9.64524 15.0111 9.18679 14.8552 8.80691 14.5743C8.42704 14.2934 8.14468 13.9016 7.99918 13.4534C8.33897 13.5177 8.689 13.5043 9.02278 13.414C8.50924 13.3107 8.04742 13.0337 7.71563 12.6302C7.38384 12.2266 7.20251 11.7212 7.20238 11.1998V11.1723C7.50838 11.3407 7.85878 11.4434 8.23078 11.4554C7.74934 11.1364 7.40852 10.6464 7.27803 10.0856C7.14754 9.52487 7.23724 8.93566 7.52878 8.43853C8.09873 9.13601 8.80949 9.70658 9.61506 10.1133C10.4206 10.5201 11.303 10.7539 12.2052 10.7997C12.0905 10.3152 12.1399 9.8065 12.3456 9.35278C12.5513 8.89906 12.9019 8.5257 13.3429 8.29075C13.7838 8.0558 14.2904 7.97242 14.7839 8.05357C15.2773 8.13472 15.73 8.37586 16.0716 8.73949C16.5794 8.6395 17.0664 8.45412 17.5116 8.19131C17.3423 8.71457 16.988 9.15891 16.5144 9.44175C16.9642 9.38783 17.4034 9.26747 17.8176 9.08465C17.5134 9.53836 17.1301 9.93433 16.686 10.2539Z" fill="white"/>
</g>
<defs>
<clipPath id="clip0_133_7998">
<rect width="24" height="23.8862" fill="white" transform="translate(0 0.383789)"/>
</clipPath>
</defs>
</svg>
